{"glyphs":{" ":{"ha":833,"x_min":0,"x_max":0,"o":""},"-":{"ha":833,"x_min":173,"x_max":719,"o":"m 173 368 l 719 368 l 719 500 l 173 500 l 173 368 z "},".":{"ha":833,"x_min":307,"x_max":543,"o":"m 307 98 l 307 98 q 338 19 307 51 q 425 -14 369 -14 l 425 -14 q 511 18 479 -14 q 543 98 543 50 l 543 98 q 511 178 543 145 q 425 211 480 211 l 425 211 q 338 178 368 211 q 307 98 307 144 z "},"/":{"ha":833,"x_min":158,"x_max":694,"o":"m 158 -85 l 307 -85 l 694 987 l 546 987 l 158 -85 z "},"@":{"ha":833,"x_min":33,"x_max":793,"o":"m 790 549 l 790 549 q 771 726 793 646 q 705 863 749 806 l 705 863 q 596 951 661 920 q 450 983 532 983 l 450 983 q 288 943 361 983 q 160 834 214 903 l 160 834 q 72 668 104 764 q 36 465 40 572 l 36 465 q 54 271 33 358 q 121 123 75 184 l 121 123 q 238 28 167 62 q 410 -5 310 -5 l 410 -5 q 457 -2 432 -5 q 506 7 481 1 l 506 7 q 553 23 530 14 q 593 45 575 33 l 593 45 l 571 132 q 536 116 555 123 q 497 103 517 109 l 497 103 q 454 95 475 98 q 412 92 432 92 l 412 92 q 288 116 341 92 q 200 187 235 140 l 200 187 q 149 303 165 234 q 136 465 133 373 l 136 465 q 163 636 139 558 q 229 771 186 715 l 229 771 q 323 856 269 826 q 446 886 378 886 l 446 886 q 557 865 509 886 q 638 800 606 844 l 638 800 q 687 694 671 758 q 699 546 702 630 l 699 546 q 693 449 699 494 q 675 372 687 404 l 675 372 q 647 320 663 339 q 610 302 630 302 l 610 302 q 593 304 601 302 q 580 313 585 306 l 580 313 q 571 334 574 321 q 570 371 568 348 l 570 371 l 600 722 q 548 761 580 744 q 466 777 515 777 l 466 777 q 375 755 416 777 q 304 692 334 733 l 304 692 q 254 594 273 652 q 229 464 235 536 l 229 464 q 230 361 223 408 q 254 282 237 315 l 254 282 q 299 230 271 248 q 365 212 328 212 l 365 212 q 406 219 387 212 q 442 237 425 225 l 442 237 q 467 259 455 247 q 488 285 478 271 l 488 285 q 503 258 494 270 q 522 237 511 245 l 522 237 q 555 218 536 224 q 595 212 573 212 l 595 212 q 683 242 646 212 q 742 320 719 272 l 742 320 q 777 429 765 368 q 790 549 788 489 z m 332 464 l 332 464 q 347 556 336 515 q 375 624 358 596 l 375 624 q 416 667 392 652 q 473 682 441 682 l 473 682 q 489 680 482 682 q 503 677 496 679 l 503 677 l 477 377 l 476 369 q 462 348 469 357 q 447 332 454 338 l 447 332 q 421 316 435 321 q 392 312 407 312 l 392 312 q 363 322 376 312 q 343 352 351 332 l 343 352 q 333 399 336 371 q 332 464 330 428 z "},"A":{"ha":833,"x_min":34,"x_max":816,"o":"m 271 227 l 581 227 l 647 0 l 816 0 l 500 987 l 355 987 l 34 0 l 203 0 l 271 227 z m 541 367 l 312 367 l 427 758 l 541 367 z "},"B":{"ha":833,"x_min":100,"x_max":783,"o":"m 100 987 l 100 0 l 441 0 q 577 19 515 0 q 686 74 640 37 l 686 74 q 757 163 731 110 q 782 288 783 217 l 782 288 q 771 364 782 328 q 738 430 760 400 l 738 430 q 686 480 717 458 q 610 513 654 502 l 610 513 l 610 515 q 663 542 640 527 q 704 578 686 557 l 704 578 q 744 642 730 606 q 758 720 758 678 l 758 720 q 732 840 758 789 q 660 923 706 890 l 660 923 q 551 971 614 956 q 416 987 488 987 l 416 987 l 100 987 z m 264 134 l 264 446 l 451 446 q 522 434 491 446 q 575 403 553 423 l 575 403 q 608 354 597 382 q 618 288 618 325 l 618 288 q 605 223 618 252 q 568 175 592 195 l 568 175 q 513 145 545 156 q 443 134 481 134 l 443 134 l 264 134 z m 419 570 l 264 570 l 264 852 l 418 852 q 494 843 460 852 q 552 813 529 833 l 552 813 q 584 771 572 797 q 595 711 595 746 l 595 711 q 583 654 595 679 q 549 611 570 629 l 549 611 q 493 581 526 591 q 419 570 459 571 l 419 570 z "},"C":{"ha":833,"x_min":62,"x_max":768,"o":"m 768 304 l 768 304 l 604 304 q 587 224 600 259 q 551 167 573 190 l 551 167 q 495 131 528 143 q 420 119 463 119 l 420 119 q 358 129 385 119 q 309 157 330 138 l 309 157 q 274 199 289 175 q 250 254 260 224 l 250 254 q 232 333 238 290 q 227 426 227 376 l 227 426 l 227 562 q 231 641 227 602 q 244 713 235 679 l 244 713 q 274 783 256 751 q 318 835 292 814 l 318 835 q 364 859 338 850 q 421 868 389 868 l 421 868 q 499 855 467 868 q 554 817 532 842 l 554 817 q 588 756 576 791 q 605 676 601 720 l 605 676 l 768 676 q 735 810 760 750 q 665 913 709 871 l 665 913 q 561 979 622 956 q 421 1002 499 1002 l 421 1002 q 315 986 363 1002 q 227 943 267 970 l 227 943 q 152 869 184 912 q 100 773 120 826 l 100 773 q 71 672 81 726 q 62 561 62 618 l 62 561 l 62 426 q 72 310 62 366 q 101 207 82 254 l 101 207 q 150 118 121 159 q 217 50 178 78 l 217 50 q 308 2 257 19 q 420 -14 359 -14 l 420 -14 q 556 8 495 -14 q 663 73 618 31 l 663 73 q 734 173 707 115 q 768 304 761 232 z "},"D":{"ha":833,"x_min":94,"x_max":772,"o":"m 94 987 l 94 0 l 343 0 q 470 16 411 0 q 578 63 530 33 l 578 63 q 657 130 622 91 q 718 218 693 170 l 718 218 q 758 327 744 267 q 772 454 772 387 l 772 454 l 772 532 q 757 663 772 602 q 715 777 742 725 l 715 777 q 649 866 688 826 q 560 932 610 906 l 560 932 q 458 973 514 958 q 338 987 401 987 l 338 987 l 94 987 z m 258 132 l 258 854 l 338 854 q 411 846 377 854 q 472 821 445 837 l 472 821 q 536 767 509 800 q 580 692 564 734 l 580 692 q 600 618 593 658 q 606 533 606 578 l 606 533 l 606 454 q 600 369 606 409 q 580 295 593 329 l 580 295 q 542 224 565 256 q 488 173 519 193 l 488 173 q 423 143 459 153 q 343 132 387 132 l 343 132 l 258 132 z "},"E":{"ha":833,"x_min":110,"x_max":750,"o":"m 273 443 l 682 443 l 682 574 l 273 574 l 273 852 l 747 852 l 747 987 l 110 987 l 110 0 l 750 0 l 750 134 l 273 134 l 273 443 z "},"H":{"ha":833,"x_min":89,"x_max":739,"o":"m 580 0 l 739 0 l 739 987 l 580 987 l 580 574 l 248 574 l 248 987 l 89 987 l 89 0 l 248 0 l 248 440 l 580 440 l 580 0 z "},"I":{"ha":833,"x_min":125,"x_max":707,"o":"m 707 987 l 125 987 l 125 852 l 332 852 l 332 134 l 125 134 l 125 0 l 707 0 l 707 134 l 496 134 l 496 852 l 707 852 l 707 987 z "},"L":{"ha":833,"x_min":115,"x_max":750,"o":"m 750 134 l 279 134 l 279 987 l 115 987 l 115 0 l 750 0 l 750 134 z "},"M":{"ha":833,"x_min":92,"x_max":754,"o":"m 416 565 l 294 987 l 92 987 l 92 0 l 245 0 l 245 335 l 236 760 l 374 304 l 458 304 l 610 776 l 601 335 l 601 0 l 754 0 l 754 987 l 551 987 l 416 565 z "},"N":{"ha":833,"x_min":89,"x_max":739,"o":"m 575 0 l 739 0 l 739 987 l 574 987 l 573 311 l 254 987 l 89 987 l 89 0 l 254 0 l 254 680 l 575 0 z "},"O":{"ha":833,"x_min":62,"x_max":770,"o":"m 770 428 l 770 428 l 770 558 q 760 677 770 620 q 727 785 749 734 l 727 785 q 678 871 707 831 q 610 939 649 910 l 610 939 q 521 985 570 968 q 412 1001 471 1001 l 412 1001 q 306 985 354 1001 q 219 940 257 969 l 219 940 q 151 870 180 910 q 102 781 122 829 l 102 781 q 72 675 82 731 q 62 558 62 618 l 62 558 l 62 428 q 71 316 62 370 q 99 213 81 261 l 99 213 q 149 121 119 163 q 218 49 178 79 l 218 49 q 306 3 256 20 q 414 -14 355 -14 l 414 -14 q 519 2 471 -14 q 606 45 567 18 l 606 45 q 677 116 646 75 q 730 208 709 158 l 730 208 q 760 313 749 257 q 770 428 770 368 z m 606 559 l 606 559 l 606 428 q 603 356 606 392 q 590 288 599 320 l 590 288 q 565 219 581 250 q 525 166 549 189 l 525 166 q 476 135 505 146 q 414 123 448 123 l 414 123 q 350 135 378 123 q 302 168 323 147 l 302 168 q 265 221 280 189 q 241 289 250 252 l 241 289 q 229 357 233 321 q 226 428 226 393 l 226 428 l 226 559 q 230 632 226 596 q 241 701 233 669 l 241 701 q 267 770 250 739 q 307 823 283 801 l 307 823 q 353 852 326 842 q 412 863 379 863 l 412 863 q 474 852 447 863 q 522 822 501 841 l 522 822 q 563 769 546 800 q 589 701 579 739 l 589 701 q 602 633 598 669 q 606 559 606 597 z "},"P":{"ha":833,"x_min":113,"x_max":785,"o":"m 276 0 l 276 376 l 444 376 q 581 398 518 376 q 689 459 644 420 l 689 459 q 760 555 734 499 q 785 678 785 610 l 785 678 q 760 806 785 749 q 689 903 734 863 l 689 903 q 581 965 644 943 q 444 987 518 987 l 444 987 l 113 987 l 113 0 l 276 0 z m 444 509 l 276 509 l 276 854 l 444 854 q 518 841 485 854 q 574 804 551 828 l 574 804 q 609 748 597 781 q 621 677 621 716 l 621 677 q 609 610 621 641 q 574 557 597 580 l 574 557 q 518 523 551 535 q 444 509 485 510 l 444 509 z "},"Q":{"ha":833,"x_min":60,"x_max":810,"o":"m 778 416 l 778 416 l 778 551 q 769 655 777 604 q 745 753 762 707 l 745 753 q 693 856 726 809 q 618 936 661 903 l 618 936 q 527 984 577 966 q 416 1001 476 1001 l 416 1001 q 306 984 355 1001 q 216 936 256 966 l 216 936 q 143 859 174 904 q 95 761 113 814 l 95 761 q 69 660 78 713 q 60 551 60 607 l 60 551 l 60 416 q 69 315 60 365 q 96 219 78 264 l 96 219 q 144 127 115 170 q 214 52 174 84 l 214 52 q 304 4 254 22 q 416 -14 355 -14 l 416 -14 q 465 -10 441 -14 q 512 -1 489 -7 l 512 -1 l 703 -171 l 810 -73 l 644 72 q 700 137 676 100 q 740 214 724 174 l 740 214 q 768 312 758 260 q 778 416 777 363 z m 613 553 l 613 553 l 613 416 q 609 352 613 385 q 597 288 606 319 l 597 288 q 572 221 588 252 q 531 166 555 189 l 531 166 q 481 135 509 147 q 416 123 452 123 l 416 123 q 352 135 380 123 q 304 167 324 146 l 304 167 q 263 221 279 189 q 239 292 248 254 l 239 292 q 228 353 231 321 q 224 416 224 385 l 224 416 l 224 553 q 228 619 224 586 q 237 684 231 652 l 237 684 q 261 760 245 725 q 302 819 277 795 l 302 819 q 351 851 323 840 q 416 863 379 863 l 416 863 q 482 851 453 863 q 532 819 511 839 l 532 819 q 571 767 555 797 q 595 702 587 737 l 595 702 q 609 630 605 668 q 613 553 613 591 z "},"R":{"ha":833,"x_min":103,"x_max":796,"o":"m 266 383 l 433 383 l 622 0 l 796 0 l 796 9 l 585 422 q 659 465 626 440 q 716 524 692 490 l 716 524 q 753 598 740 557 q 766 690 766 640 l 766 690 q 741 820 766 764 q 668 912 715 875 l 668 912 q 557 968 622 949 q 416 987 493 987 l 416 987 l 103 987 l 103 0 l 266 0 l 266 383 z m 418 516 l 266 516 l 266 854 l 416 854 q 492 844 458 854 q 550 812 526 833 l 550 812 q 589 759 576 791 q 602 684 602 726 l 602 684 q 590 616 602 646 q 556 566 578 586 l 556 566 q 497 529 532 542 q 418 516 462 517 l 418 516 z "},"S":{"ha":833,"x_min":68,"x_max":779,"o":"m 616 254 l 616 254 q 602 197 616 222 q 565 155 588 172 l 565 155 q 509 128 541 137 q 439 119 477 119 l 439 119 q 358 130 395 119 q 294 163 321 141 l 294 163 q 251 219 267 185 q 231 298 235 252 l 231 298 l 68 298 q 97 171 69 226 q 174 76 125 117 l 174 76 q 296 10 226 33 q 439 -13 367 -13 l 439 -13 q 570 4 508 -13 q 678 56 631 22 l 678 56 q 752 140 724 90 q 779 256 779 190 l 779 256 q 748 381 779 327 q 664 475 716 436 l 664 475 q 572 529 622 507 q 470 566 522 551 l 470 566 q 391 592 429 578 q 324 625 353 606 l 324 625 q 279 670 296 644 q 261 729 262 695 l 261 729 q 274 787 261 761 q 310 831 287 812 l 310 831 q 365 858 333 848 q 433 868 396 868 l 433 868 q 509 856 476 868 q 565 821 542 843 l 565 821 q 600 768 587 799 q 616 700 612 737 l 616 700 l 777 700 q 750 822 777 767 q 677 918 724 878 l 677 918 q 569 979 631 957 q 435 1001 507 1001 l 435 1001 q 306 982 368 1001 q 199 928 245 964 l 199 928 q 125 842 153 892 q 98 728 98 791 l 98 728 q 122 624 98 670 q 186 541 145 577 l 186 541 q 287 476 228 505 q 415 427 345 448 l 415 427 q 497 398 460 414 q 562 363 534 382 l 562 363 q 602 315 587 342 q 616 254 616 289 z "},"T":{"ha":833,"x_min":33,"x_max":802,"o":"m 497 852 l 802 852 l 802 987 l 33 987 l 33 852 l 335 852 l 335 0 l 497 0 l 497 852 z "},"U":{"ha":833,"x_min":89,"x_max":744,"o":"m 744 327 l 743 987 l 583 987 l 581 327 q 569 242 580 281 q 537 176 558 204 l 537 176 q 485 135 516 149 q 414 120 454 120 l 414 120 q 346 135 375 120 q 296 175 316 149 l 296 175 q 264 241 275 202 q 252 327 253 280 l 252 327 l 251 987 l 90 987 l 89 327 q 113 187 90 250 q 179 79 136 124 l 179 79 q 281 11 221 35 q 414 -14 340 -14 l 414 -14 q 550 11 490 -14 q 654 80 611 35 l 654 80 q 721 188 697 125 q 744 327 744 250 l 744 327 z "},"W":{"ha":833,"x_min":31,"x_max":812,"o":"m 31 987 l 160 0 l 314 0 l 413 604 l 420 651 l 427 604 l 528 0 l 682 0 l 812 987 l 660 987 l 591 381 l 587 340 l 580 380 l 481 987 l 357 987 l 262 383 l 255 342 l 250 381 l 182 987 l 31 987 z "},"_":{"ha":833,"x_min":102,"x_max":722,"o":"m 102 -128 l 722 -128 l 722 0 l 102 0 l 102 -128 z "},"a":{"ha":833,"x_min":90,"x_max":739,"o":"m 574 0 l 574 0 l 739 0 l 739 12 q 719 80 726 40 q 711 169 711 119 l 711 169 l 711 495 q 688 605 711 557 q 625 684 665 653 l 625 684 q 528 731 584 715 q 408 747 472 747 l 408 747 q 280 729 336 747 q 185 678 224 710 l 185 678 q 126 606 146 647 q 105 522 106 566 l 105 522 l 268 522 q 276 561 268 543 q 300 593 283 580 l 300 593 q 341 615 316 607 q 399 623 366 623 l 399 623 q 464 614 435 623 q 511 588 492 605 l 511 588 q 539 548 530 571 q 549 496 549 525 l 549 496 l 549 447 l 431 447 q 289 432 352 447 q 184 389 227 417 l 184 389 q 114 312 138 358 q 90 205 90 265 l 90 205 q 108 118 90 158 q 160 49 127 77 l 160 49 q 241 3 194 20 q 345 -14 288 -14 l 345 -14 q 411 -7 380 -14 q 468 12 441 0 l 468 12 q 516 40 494 24 q 554 73 537 56 l 554 73 q 562 33 557 52 q 574 0 566 14 z m 376 117 l 376 117 q 322 124 345 117 q 283 146 299 132 l 283 146 q 260 179 268 159 q 252 220 252 198 l 252 220 q 261 269 252 248 q 292 307 271 291 l 292 307 q 353 335 315 325 q 445 345 392 345 l 445 345 l 549 345 l 549 209 q 524 175 541 191 q 486 146 508 159 l 486 146 q 436 125 463 133 q 376 117 408 117 z "},"b":{"ha":833,"x_min":108,"x_max":750,"o":"m 750 359 l 750 359 l 750 374 q 739 492 750 436 q 706 593 728 547 l 706 593 q 668 653 690 625 q 620 699 647 680 l 620 699 q 548 735 588 722 q 461 747 509 747 l 461 747 q 394 740 425 747 q 338 719 363 733 l 338 719 q 301 694 318 708 q 270 662 284 680 l 270 662 l 270 1042 l 108 1042 l 108 0 l 254 0 l 262 80 q 287 53 274 65 q 315 29 300 40 l 315 29 q 381 -3 345 8 q 463 -14 418 -14 l 463 -14 q 544 -2 507 -14 q 612 29 582 9 l 612 29 q 677 92 650 54 q 721 177 705 130 l 721 177 q 743 262 735 216 q 750 359 750 309 z m 588 374 l 588 374 l 588 359 q 585 300 588 329 q 574 248 581 272 l 574 248 q 551 189 566 215 q 512 146 536 163 l 512 146 q 472 126 494 134 q 422 119 450 119 l 422 119 q 367 127 391 119 q 323 149 342 135 l 323 149 q 293 178 306 161 q 270 215 279 195 l 270 215 l 270 519 q 289 552 278 536 q 315 578 300 567 l 315 578 q 361 605 334 595 q 420 614 387 614 l 420 614 q 469 608 448 614 q 508 589 491 602 l 508 589 q 549 546 534 572 q 574 490 564 521 l 574 490 q 584 434 581 464 q 588 374 588 405 z "},"c":{"ha":833,"x_min":87,"x_max":732,"o":"m 425 117 l 425 117 q 340 137 374 117 q 286 191 306 157 l 286 191 q 257 267 266 224 q 249 355 249 310 l 249 355 l 249 378 q 257 465 249 422 q 286 541 266 508 l 286 541 q 340 595 307 574 q 425 616 374 616 l 425 616 q 487 604 458 616 q 536 573 515 593 l 536 573 q 568 527 557 553 q 579 471 579 500 l 579 471 l 732 471 q 710 583 732 532 q 646 670 687 633 l 646 670 q 549 727 606 707 q 426 747 492 747 l 426 747 q 278 718 342 747 q 172 638 215 688 l 172 638 q 108 521 130 588 q 87 378 87 454 l 87 378 l 87 355 q 109 212 87 279 q 172 95 130 145 l 172 95 q 278 15 215 45 q 427 -14 342 -14 l 427 -14 q 543 6 488 -14 q 641 60 598 26 l 641 60 q 708 142 683 95 q 732 243 732 189 l 732 243 l 579 243 q 567 192 579 215 q 533 152 554 169 l 533 152 q 483 126 511 135 q 425 117 455 117 z "},"g":{"ha":833,"x_min":84,"x_max":730,"o":"m 84 372 l 84 372 l 84 358 q 105 211 84 279 q 164 93 125 142 l 164 93 q 256 15 202 43 q 378 -14 311 -14 l 378 -14 q 448 -6 416 -14 q 506 17 479 2 l 506 17 q 539 39 524 26 q 568 67 554 52 l 568 67 l 568 16 q 556 -58 568 -25 q 523 -113 545 -90 l 523 -113 q 466 -148 499 -136 q 389 -160 432 -160 l 389 -160 q 339 -155 363 -160 q 291 -139 315 -150 l 291 -139 q 244 -111 267 -128 q 202 -70 222 -94 l 202 -70 l 125 -168 q 184 -224 150 -201 q 255 -261 218 -247 l 255 -261 q 330 -282 292 -275 q 398 -289 367 -289 l 398 -289 q 533 -268 472 -289 q 639 -208 595 -248 l 639 -208 q 706 -111 682 -168 q 730 20 730 -54 l 730 20 l 730 734 l 583 734 l 576 660 q 547 690 563 676 q 514 714 532 704 l 514 714 q 454 739 487 730 q 380 747 420 747 l 380 747 q 257 720 311 747 q 163 643 202 692 l 163 643 q 105 525 125 593 q 84 372 84 456 z m 247 358 l 247 358 l 247 372 q 257 466 247 422 q 289 543 267 509 l 289 543 q 342 595 310 576 q 420 614 375 614 l 420 614 q 468 608 446 614 q 507 592 490 602 l 507 592 q 542 565 527 581 q 568 528 557 549 l 568 528 l 568 207 q 543 171 557 187 q 511 143 529 155 l 511 143 q 470 126 492 132 q 419 120 447 120 l 419 120 q 342 139 374 120 q 288 191 309 157 l 288 191 q 257 266 267 222 q 247 358 247 309 z "},"i":{"ha":833,"x_min":142,"x_max":747,"o":"m 532 734 l 142 734 l 142 599 l 368 599 l 368 134 l 142 134 l 142 0 l 747 0 l 747 134 l 532 134 l 532 734 z m 353 924 l 353 924 q 366 879 353 898 q 403 852 378 859 l 403 852 q 446 848 427 844 q 480 865 466 852 l 480 865 q 524 895 509 873 q 534 947 538 917 l 534 947 q 508 995 530 976 q 448 1013 485 1013 l 448 1013 q 409 1007 427 1013 q 380 989 392 1000 l 380 989 q 360 960 367 977 q 353 924 353 943 z "},"l":{"ha":833,"x_min":136,"x_max":754,"o":"m 532 1042 l 136 1042 l 136 907 l 368 907 l 368 134 l 136 134 l 136 0 l 754 0 l 754 134 l 532 134 l 532 1042 z "},"m":{"ha":833,"x_min":56,"x_max":774,"o":"m 202 653 l 197 734 l 56 734 l 56 0 l 205 0 l 205 564 q 215 582 210 574 q 227 596 220 590 l 227 596 q 248 609 235 605 q 277 614 260 614 l 277 614 q 303 610 292 614 q 324 597 315 606 l 324 597 q 337 573 333 588 q 342 536 342 557 l 342 536 l 342 0 l 488 0 l 488 545 q 488 555 488 551 q 488 562 488 559 l 488 562 q 496 582 491 573 q 510 598 502 591 l 510 598 q 530 610 519 606 q 558 614 542 614 l 558 614 q 585 610 572 614 q 606 597 597 606 l 606 597 q 620 572 615 587 q 625 535 625 557 l 625 535 l 625 0 l 774 0 l 774 534 q 762 632 774 591 q 728 699 750 673 l 728 699 q 677 735 707 724 q 612 747 648 747 l 612 747 q 563 741 585 747 q 522 722 540 734 l 522 722 q 495 699 507 712 q 473 669 483 685 l 473 669 q 457 700 467 686 q 435 722 448 713 l 435 722 q 398 741 420 735 q 349 747 376 747 l 349 747 q 260 722 297 747 q 202 653 223 697 l 202 653 z "},"o":{"ha":833,"x_min":75,"x_max":757,"o":"m 75 374 l 75 374 l 75 359 q 98 211 75 279 q 165 93 121 143 l 165 93 q 273 14 209 43 q 417 -14 336 -14 l 417 -14 q 561 14 497 -14 q 667 93 624 43 l 667 93 q 734 211 711 143 q 757 359 757 279 l 757 359 l 757 374 q 734 522 757 454 q 667 640 711 590 l 667 640 q 560 719 623 690 q 416 747 496 747 l 416 747 q 272 719 335 747 q 165 640 209 690 l 165 640 q 98 522 121 590 q 75 374 75 454 z m 237 359 l 237 359 l 237 374 q 248 466 237 422 q 280 543 258 510 l 280 543 q 336 596 302 576 q 416 616 370 616 l 416 616 q 496 596 463 616 q 551 543 530 576 l 551 543 q 584 466 573 510 q 595 374 595 422 l 595 374 l 595 359 q 584 266 595 310 q 552 189 574 222 l 552 189 q 496 136 530 155 q 417 117 463 117 l 417 117 q 336 136 370 117 q 280 189 302 155 l 280 189 q 248 266 258 222 q 237 359 237 310 z "},"r":{"ha":833,"x_min":207,"x_max":747,"o":"m 612 747 l 612 747 q 474 712 536 747 q 366 615 411 677 l 366 615 l 366 632 l 359 734 l 207 734 l 207 0 l 369 0 l 369 453 q 401 511 382 486 q 447 552 420 536 l 447 552 q 505 577 472 569 q 578 585 537 585 l 578 585 q 650 581 614 585 q 724 569 686 577 l 724 569 l 747 729 q 689 742 726 736 q 612 747 652 747 z "},"s":{"ha":833,"x_min":98,"x_max":743,"o":"m 585 199 l 585 199 q 577 166 585 181 q 553 140 569 152 l 553 140 q 503 116 534 125 q 429 107 471 107 l 429 107 q 368 114 398 107 q 313 135 337 120 l 313 135 q 273 173 289 149 q 255 230 257 196 l 255 230 l 98 230 q 119 140 98 184 q 183 62 141 96 l 183 62 q 286 7 224 28 q 427 -14 347 -14 l 427 -14 q 556 2 498 -14 q 656 47 614 18 l 656 47 q 721 117 698 77 q 743 207 743 158 l 743 207 q 722 294 743 257 q 661 357 700 330 l 661 357 q 566 401 621 383 q 443 431 510 418 l 443 431 q 363 449 395 439 q 314 471 332 459 l 314 471 q 288 498 295 483 q 280 532 280 513 l 280 532 q 289 567 280 551 q 315 596 298 584 l 315 596 q 360 617 333 610 q 425 625 388 625 l 425 625 q 494 615 465 625 q 543 587 524 604 l 543 587 q 568 553 559 572 q 576 514 576 534 l 576 514 l 739 514 q 717 606 739 564 q 655 680 695 649 l 655 680 q 556 729 614 711 q 425 747 498 747 l 425 747 q 300 730 356 747 q 205 682 244 712 l 205 682 q 143 611 165 651 q 122 526 122 570 l 122 526 q 143 444 122 479 q 201 382 164 409 l 201 382 q 292 336 239 355 q 408 304 345 317 l 408 304 q 493 284 459 295 q 548 261 527 273 l 548 261 q 576 233 568 248 q 585 199 585 218 z "},"t":{"ha":833,"x_min":90,"x_max":736,"o":"m 431 734 l 431 913 l 268 913 l 268 734 l 90 734 l 90 612 l 268 612 l 268 252 q 287 131 268 181 q 338 48 305 81 l 338 48 q 418 1 372 16 q 520 -14 465 -14 l 520 -14 q 582 -11 551 -14 q 641 -3 612 -8 l 641 -3 q 694 11 669 3 q 736 29 719 18 l 736 29 l 719 141 q 689 135 707 138 q 650 128 671 131 l 650 128 q 607 123 629 125 q 564 121 585 121 l 564 121 q 510 127 534 121 q 468 151 486 134 l 468 151 q 440 194 450 166 q 431 262 431 221 l 431 262 l 431 612 l 707 612 l 707 734 l 431 734 z "},"w":{"ha":833,"x_min":24,"x_max":804,"o":"m 24 734 l 166 0 l 304 0 l 397 416 l 413 507 l 430 416 l 525 0 l 663 0 l 804 734 l 657 734 l 591 286 l 578 197 l 563 286 l 467 734 l 361 734 l 265 284 l 250 199 l 239 284 l 171 734 l 24 734 z "}}}
